<?xml version="1.0" standalone="no"?>
<!DOCTYPE svg PUBLIC "-//W3C//DTD SVG 20010904//EN"
 "http://www.w3.org/TR/2001/REC-SVG-20010904/DTD/svg10.dtd">
<svg version="1.0" xmlns="http://www.w3.org/2000/svg"
 width="500.000000pt" height="500.000000pt" viewBox="0 0 500.000000 500.000000"
 preserveAspectRatio="xMidYMid meet">

<g transform="translate(0.000000,500.000000) scale(0.100000,-0.100000)"
fill="#000000" stroke="none">
<path d="M0 2500 l0 -2500 2500 0 2500 0 0 2500 0 2500 -2500 0 -2500 0 0
-2500z m301 363 c-18 -15 -23 -34 -30 -113 -8 -90 -10 -96 -42 -122 -18 -15
-37 -28 -42 -28 -5 0 1 8 13 18 18 15 22 31 27 102 6 104 17 136 52 149 40 14
45 13 22 -6z m4417 6 c38 -13 49 -42 55 -149 4 -68 9 -88 25 -100 18 -14 18
-15 0 -30 -15 -12 -20 -33 -24 -95 -3 -44 -7 -90 -10 -102 -6 -29 -31 -53 -57
-53 -20 0 -20 1 -3 13 14 10 19 33 24 103 5 83 7 91 37 121 l31 31 -29 24
c-27 21 -30 30 -38 118 -7 79 -12 98 -30 113 -25 20 -23 21 19 6z m-2147 -47
c-47 -23 -75 -81 -79 -164 -6 -97 30 -187 82 -208 18 -7 18 -9 3 -9 -25 -1
-68 22 -93 51 -60 67 -58 221 4 292 25 27 74 56 97 56 15 0 11 -5 -14 -18z
m130 -5 c48 -32 77 -80 84 -141 13 -98 -28 -187 -102 -225 -37 -19 -50 -12
-17 8 68 41 91 200 44 296 -17 34 -36 55 -60 67 -33 17 -34 18 -9 18 14 0 41
-10 60 -23z m1359 -163 c34 -87 70 -171 81 -186 l20 -28 -63 0 c-59 0 -61 1
-41 15 l22 15 -21 60 -22 60 -74 0 c-71 0 -73 1 -66 23 7 25 23 55 24 45 0 -4
-4 -18 -10 -32 l-10 -26 65 0 c36 0 65 1 65 3 0 2 -17 48 -50 132 l-12 30 -14
-25 c-16 -26 -16 -24 13 59 19 53 15 60 93 -145z m-3460 157 c-15 -29 -13
-323 3 -344 6 -9 30 -18 52 -20 22 -2 -5 -4 -60 -5 -55 0 -93 2 -85 5 35 13
40 35 40 194 0 130 -3 160 -16 173 -14 15 -11 16 31 16 42 0 45 -2 35 -19z
m186 -16 c48 -37 71 -118 56 -195 -7 -30 -20 -66 -30 -80 -23 -31 -79 -70
-101 -70 -9 0 -2 9 17 20 45 28 64 77 64 171 0 100 -20 144 -76 171 l-41 19
38 -5 c22 -3 54 -17 73 -31z m232 24 c-16 -9 -18 -29 -18 -183 0 -196 -4 -186
80 -186 57 0 85 20 99 70 9 33 9 32 10 -22 l1 -58 -142 1 c-110 0 -138 3 -120
11 22 11 22 15 22 184 0 154 -2 174 -17 183 -14 8 -4 10 42 10 46 0 56 -2 43
-10z m161 -36 l-1 -48 -12 35 c-7 19 -24 41 -37 47 -23 12 -23 13 14 13 l37 0
-1 -47z m144 40 c-21 -8 -16 -28 39 -175 49 -131 52 -138 65 -116 l14 23 -7
-24 c-10 -38 -35 -94 -39 -89 -2 2 -34 80 -70 173 -37 94 -73 180 -81 193 -14
22 -14 22 38 21 29 0 47 -3 41 -6z m231 -14 c-10 -11 -24 -33 -31 -47 -11 -26
-11 -26 -6 7 5 26 2 37 -12 48 -17 12 -14 13 25 13 43 0 43 0 24 -21z m292 5
c-12 -12 -16 -37 -16 -110 l0 -94 35 0 c72 0 105 35 105 110 0 52 -17 87 -49
100 -23 9 -22 10 14 5 74 -8 109 -89 70 -164 -17 -34 -78 -61 -135 -61 l-40 0
0 -58 c0 -62 12 -87 45 -95 11 -3 -16 -5 -60 -5 -44 0 -73 2 -65 5 35 13 40
35 40 194 0 130 -3 160 -16 173 -14 15 -11 16 36 16 47 0 50 -1 36 -16z m326
4 c-7 -7 -12 -44 -12 -95 l0 -83 44 0 c58 0 86 23 93 77 6 48 -13 87 -50 104
-17 7 -14 8 18 5 82 -11 114 -99 56 -157 -16 -16 -37 -29 -45 -29 -25 0 -19
-17 8 -24 25 -6 38 -31 57 -109 13 -53 30 -67 56 -46 13 11 15 11 9 1 -4 -7
-19 -18 -33 -23 -40 -15 -68 10 -83 73 -6 29 -14 61 -17 70 -8 32 -34 48 -74
48 l-40 0 3 -82 c3 -77 5 -83 28 -95 22 -11 17 -13 -50 -12 -55 0 -69 3 -52 9
22 9 22 12 22 189 0 134 -3 181 -12 184 -7 3 9 6 37 6 38 1 46 -2 37 -11z
m888 2 c-12 -8 -8 -29 30 -144 24 -75 47 -136 51 -136 4 0 11 15 15 33 4 17 9
28 10 22 2 -5 -7 -44 -20 -85 -29 -88 -18 -102 -98 135 -28 83 -58 158 -66
168 -14 16 -12 17 39 17 37 0 49 -3 39 -10z m193 -10 c-3 -11 14 -79 38 -152
l42 -133 38 115 c43 130 47 164 22 179 -14 8 -9 10 25 11 l43 0 -20 -27 c-11
-16 -40 -98 -66 -183 -26 -85 -50 -161 -55 -169 -5 -9 -25 39 -55 130 -47 141
-49 143 -61 114 -7 -16 -13 -36 -14 -44 0 -8 -3 -12 -6 -8 -3 3 2 29 11 57 16
49 16 52 -3 90 l-19 40 42 0 c38 0 43 -2 38 -20z m354 13 c-16 -4 -17 -19 -15
-186 l3 -182 51 -3 c74 -4 101 9 114 58 6 22 13 40 15 40 3 0 5 -25 5 -55 l0
-55 -147 0 c-126 0 -144 2 -123 13 l25 13 3 169 c2 151 1 171 -15 182 -14 11
-7 13 43 12 32 -1 51 -3 41 -6z m160 -37 c-2 -49 -6 -50 -22 -3 -6 20 -19 34
-35 38 -20 6 -17 7 17 8 l42 1 -2 -44z m525 32 c-7 -7 -12 -44 -12 -95 l0 -83
44 0 c58 0 86 23 93 77 6 48 -13 87 -50 104 -17 7 -14 8 18 5 82 -11 114 -99
56 -157 -16 -16 -37 -29 -45 -29 -25 0 -19 -17 8 -24 25 -6 38 -31 57 -109 13
-53 30 -67 56 -46 13 11 15 11 9 1 -4 -7 -19 -18 -33 -23 -40 -15 -68 10 -83
73 -6 29 -14 61 -17 70 -8 32 -34 48 -74 48 l-40 0 3 -82 c3 -77 5 -83 28 -95
22 -11 17 -13 -50 -12 -55 0 -69 3 -52 9 22 9 22 12 22 189 0 134 -3 181 -12
184 -7 3 9 6 37 6 38 1 46 -2 37 -11z m-2791 -115 c-12 -20 -14 -14 -5 12 4 9
9 14 11 11 3 -2 0 -13 -6 -23z m-402 -65 c-1 -46 -4 -71 -6 -56 -2 15 -13 34
-25 42 l-20 14 21 21 c12 12 21 30 21 41 0 11 2 20 5 20 3 0 4 -37 4 -82z
m2590 0 c-1 -66 -3 -77 -10 -53 -5 16 -17 36 -26 43 -17 12 -17 14 -1 23 9 5
19 23 23 39 11 50 15 34 14 -52z m242 45 c-12 -20 -14 -14 -5 12 4 9 9 14 11
11 3 -2 0 -13 -6 -23z m-2452 -42 c-6 -18 -13 -30 -15 -28 -2 2 1 18 7 36 6
18 13 30 15 28 2 -2 -1 -18 -7 -36z m-1206 -186 c4 -70 9 -92 23 -102 17 -12
17 -13 -3 -13 -26 0 -51 24 -57 53 -3 12 -7 56 -9 97 -3 41 -8 84 -12 95 -5
15 1 12 23 -11 26 -28 29 -39 35 -119z m1178 118 c-12 -20 -14 -14 -5 12 4 9
9 14 11 11 3 -2 0 -13 -6 -23z m2430 -20 c-12 -20 -14 -14 -5 12 4 9 9 14 11
11 3 -2 0 -13 -6 -23z m-15 -55 c-1 -25 5 -35 24 -45 23 -12 21 -13 -29 -13
l-54 0 20 23 c11 12 24 32 28 45 9 31 13 28 11 -10z m-2198 -10 c16 -16 15
-23 -4 -42 -12 -12 -20 -13 -35 -6 -19 10 -26 40 -12 53 10 11 38 8 51 -5z
m1250 -19 c4 -30 -22 -46 -44 -28 -15 12 -19 41 -7 53 16 16 48 1 51 -25z
m-1681 -426 c-2 -16 -4 -5 -4 22 0 28 2 40 4 28 2 -13 2 -35 0 -50z m145 27
c12 0 37 -30 38 -45 0 -5 -7 1 -16 13 -19 28 -31 28 -37 0 -2 -13 -4 0 -4 27
0 28 2 40 4 28 2 -13 9 -23 15 -23z m36 9 c-3 -8 -7 -3 -11 10 -4 17 -3 21 5
13 5 -5 8 -16 6 -23z m97 15 c-19 -19 -16 -43 6 -57 37 -23 69 29 37 61 -8 8
-8 12 -1 12 25 0 31 -61 8 -80 -20 -17 -62 -5 -70 20 -7 21 10 60 26 60 6 0 3
-7 -6 -16z m178 -25 l22 -2 -22 -4 c-13 -2 -24 -13 -26 -26 -2 -12 -4 1 -4 28
0 28 2 40 4 28 3 -15 12 -23 26 -24z m233 21 c0 -12 -4 -16 -9 -11 -5 5 -6 14
-3 20 10 15 12 14 12 -9z m241 -47 c-2 -16 -4 -5 -4 22 0 28 2 40 4 28 2 -13
2 -35 0 -50z m102 48 c-15 -24 -6 -49 23 -61 16 -6 18 -9 6 -9 -37 -2 -62 51
-36 77 17 17 20 15 7 -7z m71 -27 c0 -12 -5 -26 -10 -29 -7 -4 -9 2 -4 19 4
16 1 33 -7 44 -13 15 -12 16 4 3 9 -7 17 -24 17 -37z m105 16 c26 -38 33 -38
38 3 3 22 4 17 5 -18 l1 -50 -34 40 -34 39 -4 -39 c-4 -39 -4 -39 -5 8 -1 26
1 47 6 47 4 0 16 -14 27 -30z m169 14 c9 -24 7 -31 -4 -14 -9 13 -11 13 -20 0
-11 -17 -13 -10 -4 14 3 9 10 16 14 16 4 0 11 -7 14 -16z m129 -67 c18 -4 17
-5 -5 -6 -27 -1 -28 1 -26 47 l1 47 4 -42 c3 -33 8 -43 26 -46z m222 47 c8
-20 15 -42 14 -48 0 -6 -8 8 -18 32 -9 23 -20 40 -24 36 -4 -4 -7 -2 -7 4 0
25 20 10 35 -24z m99 -5 c-3 -57 -14 -62 -14 -6 0 26 4 47 8 47 5 0 7 -18 6
-41z m46 31 c0 -5 -2 -10 -4 -10 -3 0 -8 5 -11 10 -3 6 -1 10 4 10 6 0 11 -4
11 -10z m87 -57 c-2 -16 -4 -5 -4 22 0 28 2 40 4 28 2 -13 2 -35 0 -50z m178
31 c8 -20 15 -42 14 -48 0 -6 -8 8 -18 32 -9 23 -20 40 -24 36 -4 -4 -7 -2 -7
4 0 25 20 10 35 -24z m98 16 c-4 -16 0 -20 17 -20 17 0 21 4 17 20 -3 11 0 20
5 20 6 0 8 -12 4 -31 -3 -18 -3 -37 1 -43 5 -7 1 -4 -9 6 -22 24 -36 23 -41
-4 -2 -13 -5 -2 -6 25 0 26 3 47 8 47 5 0 7 -9 4 -20z m140 0 c-4 -16 0 -20
18 -21 24 -2 24 -2 2 -6 -32 -6 -29 -31 5 -36 25 -4 25 -4 -5 -6 -33 -1 -33 0
-33 44 0 25 4 45 9 45 5 0 7 -9 4 -20z m150 -63 c18 -4 17 -5 -5 -6 -27 -1
-28 1 -26 47 l1 47 4 -42 c3 -33 8 -43 26 -46z m-2479 48 c-4 -8 -11 -15 -16
-15 -6 0 -5 6 2 15 7 8 14 15 16 15 2 0 1 -7 -2 -15z m1960 0 c-4 -8 -11 -15
-16 -15 -6 0 -5 6 2 15 7 8 14 15 16 15 2 0 1 -7 -2 -15z m-1414 -11 c0 -2 -9
-4 -20 -4 -11 0 -20 4 -20 9 0 5 9 7 20 4 11 -3 20 -7 20 -9z m241 6 c10 -6
19 -16 19 -23 0 -8 -3 -9 -8 -1 -4 6 -16 16 -27 22 -25 14 -11 16 16 2z m859
-3 c0 -7 -7 -22 -15 -33 -13 -17 -14 -16 -4 14 11 33 19 41 19 19z m410 0 c0
-7 -7 -22 -15 -33 -13 -17 -14 -16 -4 14 11 33 19 41 19 19z m-1380 -7 c0 -5
-2 -10 -4 -10 -3 0 -8 5 -11 10 -3 6 -1 10 4 10 6 0 11 -4 11 -10z m611 -27
c-12 -20 -14 -14 -5 12 4 9 9 14 11 11 3 -2 0 -13 -6 -23z m69 -8 c0 -5 -5 -3
-10 5 -5 8 -10 20 -10 25 0 6 5 3 10 -5 5 -8 10 -19 10 -25z m-687 3 c-2 -5
-10 -8 -18 -8 -8 0 -16 3 -18 8 -3 4 5 7 18 7 13 0 21 -3 18 -7z m108 -6 c-7
-2 -18 1 -23 6 -8 8 -4 9 13 5 13 -4 18 -8 10 -11z m-228 1 c-7 -2 -21 -2 -30
0 -10 3 -4 5 12 5 17 0 24 -2 18 -5z"/>
</g>
</svg>
